<?xml version="1.0" encoding="UTF-8" standalone="no"?>
<!-- Created with Inkscape (http://www.inkscape.org/) -->

<svg
   version="1.1"
   id="svg9"
   width="1058.6667"
   height="260"
   viewBox="0 0 1058.6667 260"
   sodipodi:docname="logo.svg"
   inkscape:version="1.2.2 (732a01da63, 2022-12-09)"
   xmlns:inkscape="http://www.inkscape.org/namespaces/inkscape"
   xmlns:sodipodi="http://sodipodi.sourceforge.net/DTD/sodipodi-0.dtd"
   xmlns="http://www.w3.org/2000/svg"
   xmlns:svg="http://www.w3.org/2000/svg">
  <defs
     id="defs13" />
  <sodipodi:namedview
     id="namedview11"
     pagecolor="#ffffff"
     bordercolor="#000000"
     borderopacity="0.25"
     inkscape:showpageshadow="2"
     inkscape:pageopacity="0.0"
     inkscape:pagecheckerboard="0"
     inkscape:deskcolor="#d1d1d1"
     showgrid="false"
     inkscape:zoom="0.84724785"
     inkscape:cx="375.33291"
     inkscape:cy="291.53216"
     inkscape:window-width="1858"
     inkscape:window-height="1057"
     inkscape:window-x="54"
     inkscape:window-y="-8"
     inkscape:window-maximized="1"
     inkscape:current-layer="svg9" />
  <g
     id="layer1"
     inkscape:label="SVG"
     style="display:inline;fill:#666666">
    <g
       id="g459"
       inkscape:label="chispitas"
       style="fill:#666666">
      <circle
         style="fill:#666666"
         id="path176"
         cx="147.05357"
         cy="175.6019"
         r="3.2711613" />
      <circle
         style="fill:#666666"
         id="circle232"
         cx="136.19926"
         cy="163.2607"
         r="3.2711613" />
      <circle
         style="fill:#666666"
         id="circle234"
         cx="150.91949"
         cy="161.03036"
         r="3.2711613" />
      <circle
         style="fill:#666666"
         id="circle236"
         cx="153.74458"
         cy="146.60751"
         r="3.2711613" />
      <circle
         style="fill:#666666"
         id="circle238"
         cx="130.69777"
         cy="149.72998"
         r="3.2711613" />
      <circle
         style="fill:#666666"
         id="circle240"
         cx="124.75021"
         cy="136.34796"
         r="3.2711613" />
      <circle
         style="fill:#666666"
         id="circle242"
         cx="118.50527"
         cy="123.11462"
         r="3.2711613" />
      <circle
         style="fill:#666666"
         id="circle244"
         cx="113.18357"
         cy="110.00002"
         r="3.2711613" />
      <circle
         style="fill:#666666"
         id="circle246"
         cx="107.68208"
         cy="96.469299"
         r="3.2711613" />
      <circle
         style="fill:#666666"
         id="circle248"
         cx="101.73452"
         cy="83.08728"
         r="3.2711613" />
      <circle
         style="fill:#666666"
         id="circle250"
         cx="95.489578"
         cy="69.853935"
         r="3.2711613" />
      <circle
         style="fill:#666666"
         id="circle281"
         cx="90.178261"
         cy="55.985504"
         r="3.2711613" />
      <circle
         style="fill:#666666"
         id="circle283"
         cx="67.80574"
         cy="197.76144"
         r="3.2711613"
         transform="rotate(-16.5)" />
      <circle
         style="fill:#666666"
         id="circle285"
         cx="62.304256"
         cy="184.23073"
         r="3.2711613"
         transform="rotate(-16.5)" />
      <circle
         style="fill:#666666"
         id="circle287"
         cx="56.356705"
         cy="170.84871"
         r="3.2711613"
         transform="rotate(-16.5)" />
      <circle
         style="fill:#666666"
         id="circle289"
         cx="50.111763"
         cy="157.61536"
         r="3.2711613"
         transform="rotate(-16.5)" />
      <circle
         style="fill:#666666"
         id="circle291"
         cx="44.790066"
         cy="144.50078"
         r="3.2711613"
         transform="rotate(-16.5)" />
      <circle
         style="fill:#666666"
         id="circle293"
         cx="39.288578"
         cy="130.97008"
         r="3.2711613"
         transform="rotate(-16.5)" />
      <circle
         style="fill:#666666"
         id="circle295"
         cx="33.341015"
         cy="117.58807"
         r="3.2711613"
         transform="rotate(-16.5)" />
      <circle
         style="fill:#666666"
         id="circle297"
         cx="27.096071"
         cy="104.35471"
         r="3.2711613"
         transform="rotate(-16.5)" />
      <circle
         style="fill:#666666"
         id="circle299"
         cx="21.547712"
         cy="91.286499"
         r="3.2711613"
         transform="rotate(-16.5)" />
      <circle
         style="fill:#666666"
         id="circle301"
         cx="15.463601"
         cy="77.29818"
         r="3.2711613"
         transform="rotate(-16.5)" />
      <circle
         style="fill:#666666"
         id="circle303"
         cx="9.6241026"
         cy="64.687973"
         r="3.2711613"
         transform="rotate(-16.5)" />
      <circle
         style="fill:#666666"
         id="circle305"
         cx="73.786034"
         cy="210.63097"
         r="3.2711613"
         transform="rotate(-16.5)" />
      <circle
         style="fill:#666666"
         id="circle307"
         cx="58.412472"
         cy="220.65694"
         r="3.2711613"
         transform="rotate(-16.5)" />
      <circle
         style="fill:#666666"
         id="circle309"
         cx="51.181946"
         cy="233.31259"
         r="3.2711613"
         transform="rotate(-16.5)" />
      <circle
         style="fill:#666666"
         id="circle311"
         cx="-228.10677"
         cy="43.023136"
         r="3.2711613"
         transform="rotate(-105)" />
      <circle
         style="fill:#666666"
         id="circle313"
         cx="-224.24084"
         cy="28.451605"
         r="3.2711613"
         transform="rotate(-105)" />
      <circle
         style="fill:#666666"
         id="circle315"
         cx="-221.41576"
         cy="14.028753"
         r="3.2711613"
         transform="rotate(-105)" />
      <circle
         style="fill:#666666"
         id="circle317"
         cx="-217.53294"
         cy="1.1426322"
         r="3.2711613"
         transform="rotate(-105)" />
      <circle
         style="fill:#666666"
         id="circle319"
         cx="-213.66702"
         cy="-13.428899"
         r="3.2711613"
         transform="rotate(-105)" />
      <circle
         style="fill:#666666"
         id="circle321"
         cx="-210.84193"
         cy="-27.851751"
         r="3.2711613"
         transform="rotate(-105)" />
      <circle
         style="fill:#666666"
         id="circle323"
         cx="-21.607775"
         cy="195.48747"
         r="3.2711613"
         transform="rotate(-35.5)" />
      <circle
         style="fill:#666666"
         id="circle325"
         cx="-27.109257"
         cy="181.95676"
         r="3.2711613"
         transform="rotate(-35.5)" />
      <circle
         style="fill:#666666"
         id="circle327"
         cx="-33.056808"
         cy="168.57474"
         r="3.2711613"
         transform="rotate(-35.5)" />
      <circle
         style="fill:#666666"
         id="circle329"
         cx="-39.301746"
         cy="155.34138"
         r="3.2711613"
         transform="rotate(-35.5)" />
      <circle
         style="fill:#666666"
         id="circle331"
         cx="-44.623447"
         cy="142.22681"
         r="3.2711613"
         transform="rotate(-35.5)" />
      <circle
         style="fill:#666666"
         id="circle333"
         cx="-50.124935"
         cy="128.69606"
         r="3.2711613"
         transform="rotate(-35.5)" />
      <circle
         style="fill:#666666"
         id="circle335"
         cx="-56.072495"
         cy="115.31406"
         r="3.2711613"
         transform="rotate(-35.5)" />
      <circle
         style="fill:#666666"
         id="circle337"
         cx="-15.627483"
         cy="208.35699"
         r="3.2711613"
         transform="rotate(-35.5)" />
      <circle
         style="fill:#666666"
         id="circle339"
         cx="-62.605679"
         cy="102.19647"
         r="3.2711613"
         transform="rotate(-35.5)" />
      <circle
         style="fill:#666666"
         id="circle341"
         cx="-101.24762"
         cy="183.27377"
         r="3.2711613"
         transform="rotate(-54.5)" />
      <circle
         style="fill:#666666"
         id="circle343"
         cx="-106.74911"
         cy="169.74306"
         r="3.2711613"
         transform="rotate(-54.5)" />
      <circle
         style="fill:#666666"
         id="circle345"
         cx="-112.69666"
         cy="156.36104"
         r="3.2711613"
         transform="rotate(-54.5)" />
      <circle
         style="fill:#666666"
         id="circle347"
         cx="-118.94159"
         cy="143.12769"
         r="3.2711613"
         transform="rotate(-54.5)" />
      <circle
         style="fill:#666666"
         id="circle349"
         cx="-124.26329"
         cy="130.01311"
         r="3.2711613"
         transform="rotate(-54.5)" />
      <circle
         style="fill:#666666"
         id="circle351"
         cx="-129.76476"
         cy="116.48235"
         r="3.2711613"
         transform="rotate(-54.5)" />
      <circle
         style="fill:#666666"
         id="circle353"
         cx="-95.267334"
         cy="196.1433"
         r="3.2711613"
         transform="rotate(-54.5)" />
    </g>
    <path
       id="path409"
       style="fill:#666666"
       inkscape:label="figura_hombre"
       d="M 184.49414 28.787109 C 181.67251 28.676457 178.96109 28.770282 176.74805 29.212891 C 167.89587 30.983327 151.07724 36.883249 145.17578 43.669922 C 139.27433 50.456595 132.19366 61.374992 131.60352 65.210938 C 131.01337 69.046884 130.718 82.325418 132.19336 83.800781 C 133.66873 85.276145 143.11133 98.554688 143.11133 98.554688 L 168.19141 79.080078 L 180.87891 93.833984 L 156.38867 113.01367 L 187.07617 146.06055 L 199.17383 146.94727 C 199.17383 146.94727 211.86267 141.04402 213.04297 138.97852 C 214.22326 136.91301 216.58398 139.57031 216.58398 139.57031 L 201.83008 185.01172 L 215.99414 205.37109 C 215.99414 205.37109 214.8134 210.38672 213.04297 210.38672 C 211.27253 210.38672 207.43585 212.15701 206.8457 210.68164 C 206.25556 209.20628 193.27344 191.20703 193.27344 191.20703 L 139.27539 191.50195 C 139.27539 191.50195 131.30724 197.99337 130.12695 203.30469 C 128.94666 208.61599 132.48738 218.35321 134.25781 218.94336 C 136.02825 219.5335 138.38927 222.77945 141.04492 222.48438 C 143.70058 222.18931 226.91211 221.89453 226.91211 221.89453 L 264.67969 137.50391 C 264.67969 137.50391 268.22069 134.55378 272.05664 136.32422 C 275.89259 138.09465 276.77809 141.04521 275.30273 144.29102 C 273.82737 147.53681 239.89453 221.30469 239.89453 221.30469 L 329.89258 221.00977 C 329.89258 221.00977 323.69564 175.56886 311.59766 151.66797 C 299.49968 127.76708 290.9416 103.27555 271.4668 95.308594 C 251.992 87.34163 236.64844 102.0957 236.64844 102.0957 L 234.58398 101.21094 C 234.58398 101.21094 234.28786 94.12847 232.8125 87.341797 C 231.33713 80.555124 221.89453 64.326172 221.89453 64.326172 L 231.33789 56.359375 L 220.41992 43.080078 L 214.51758 48.6875 L 202.41992 31.277344 C 202.41992 31.277344 192.95904 29.119066 184.49414 28.787109 z M 196.66602 50.457031 A 4.5736322 4.5736322 0 0 1 201.24023 55.03125 A 4.5736322 4.5736322 0 0 1 196.66602 59.605469 A 4.5736322 4.5736322 0 0 1 192.0918 55.03125 A 4.5736322 4.5736322 0 0 1 196.66602 50.457031 z " />
  </g>
  <rect
     style="fill:#4d4d4d"
     id="rect563"
     width="4.7211685"
     height="235.46829"
     x="363.53"
     y="7.0817528" />
  <text
     xml:space="preserve"
     style="font-size:120px;fill:#4d4d4d"
     x="385.95557"
     y="178.81427"
     id="text619"><tspan
       id="tspan617"
       x="385.95557"
       y="178.81427"
       sodipodi:role="line"
       style="font-style:normal;font-variant:normal;font-weight:bold;font-stretch:normal;font-size:120px;font-family:sans-serif;-inkscape-font-specification:'sans-serif Bold';fill:#4d4d4d"><tspan
         style="font-size:170.667px;fill:#4d4d4d"
         id="tspan681">M</tspan><tspan
         style="font-size:109.333px;fill:#4d4d4d"
         id="tspan671">etal</tspan><tspan
         style="font-size:170.667px;fill:#4d4d4d"
         id="tspan683">F</tspan><tspan
         style="font-size:109.333px;fill:#4d4d4d"
         id="tspan679">ran</tspan></tspan></text>
</svg>
